# Blender 3.6.2
# www.blender.org
mtllib Little_rocks_2.mtl
o StoneTiles01
v 48.727116 -16.987785 -70.597275
v 48.609970 -20.579912 -70.470276
v 46.091873 -20.579912 -74.007736
v 50.446728 -16.987787 -72.529457
v 37.465466 -16.987789 -86.181473
v 37.234116 -20.579914 -86.258560
v 40.256989 -20.579916 -91.704842
v 42.384254 -20.579914 -84.983528
v 40.949074 -16.987789 -85.089569
v 44.547241 -16.987789 -87.959389
v 44.464264 -20.579916 -89.132843
v 45.354877 -20.579918 -87.550217
v 41.135567 -20.601105 -76.301025
v 45.234051 -20.601105 -76.175751
v 45.097652 -17.008978 -75.503815
v 43.569233 -16.199387 -66.285675
v 44.785549 -20.559278 -67.094536
v 44.436260 -20.559278 -66.065529
v 44.537663 -16.199387 -66.950317
v 55.797543 -20.596344 -78.301872
v 55.350128 -20.596344 -77.206909
v 54.780575 -16.379288 -77.725143
v 51.672001 -16.379286 -75.533661
v 51.875900 -20.596342 -74.753456
v 48.082630 -20.596344 -79.635086
v 48.201653 -17.007330 -89.395973
v 44.921135 -17.021179 -84.666687
v 44.899349 -20.599457 -85.547287
v 54.547588 -20.599459 -89.801422
v 54.751736 -17.007330 -89.297630
v 56.456436 -20.599457 -86.878647
v 46.043839 -20.599455 -83.334976
v 49.369961 -16.998842 -75.834534
v 50.933094 -20.579914 -73.425560
v 50.140190 -20.579916 -76.091682
v 48.828678 -16.987787 -75.955894
v 48.858650 -20.579914 -75.977226
v 46.091873 -16.987787 -74.007736
v 40.256989 -16.987789 -91.704842
v 44.351215 -16.987789 -89.313339
v 39.589340 -17.008976 -75.430679
v 55.294674 -16.379288 -78.486389
v 48.243385 -16.379288 -80.246918
v 47.925938 -20.599457 -90.006760
v 56.732441 -17.007332 -86.940094
v 59.768978 -20.583212 -87.948471
v 59.941422 -15.886856 -87.390862
v 58.210083 -15.886856 -90.646301
v 58.528538 -20.583212 -89.539543
v 58.214851 -20.583210 -85.576645
v 58.678230 -15.886855 -85.459961
v 57.164124 -15.886856 -88.832085
v 57.352230 -20.583210 -87.500526
v 48.402119 -17.007330 -82.916183
v 56.180763 -17.007330 -84.831314
v 56.582268 -20.579916 -79.760017
v 58.197227 -20.579918 -80.302269
v 56.833214 -20.579916 -82.808884
v 54.723778 -20.579916 -81.118866
v 56.833214 -16.987791 -82.808884
v 54.797741 -16.987789 -81.175514
v 56.023376 -16.987789 -80.038589
v 58.108498 -16.987789 -80.919830
v 62.542366 -20.585171 -73.054245
v 59.727470 -20.585169 -69.375107
v 59.994194 -20.585169 -67.312164
v 61.599937 -20.585169 -67.059723
v 59.050804 -16.247484 -69.587830
v 62.759586 -16.247486 -74.435959
v 61.599937 -16.247484 -67.059723
v 59.382130 -16.534492 -67.408394
v 39.068134 -20.601101 -71.485550
v 38.083221 -20.601103 -72.403481
v 44.096531 -20.601103 -70.677132
v 46.030811 -20.601101 -72.612976
v 37.909962 -17.008976 -73.311890
v 40.261986 -17.008976 -71.119827
v 44.010162 -17.008976 -70.512894
v 45.804825 -17.008976 -72.316681
v 55.043243 -16.995277 -76.539139
v 54.861328 -20.587404 -75.108704
v 60.458374 -20.587404 -77.628990
v 59.534828 -16.995277 -78.559158
v 60.525917 -20.587404 -73.230766
v 61.405701 -17.977142 -75.862167
v 61.405701 -20.587404 -74.859558
v 58.460403 -16.995275 -70.851112
v 59.167786 -20.587402 -70.743134
v 61.405704 -16.995277 -76.245827
v 55.515755 -16.995275 -72.897079
v 55.057114 -20.587404 -73.599617
v 61.405701 -16.995277 -77.350204
v 61.396553 -20.587406 -77.022758
v 51.891121 -16.991076 -67.932236
v 56.286053 -16.991077 -68.418739
v 56.080627 -16.991077 -66.245453
v 54.297337 -16.991079 -71.427132
v 51.856987 -16.991077 -71.239532
v 51.269531 -16.991077 -70.611862
v 56.901196 -20.583204 -68.058914
v 56.705700 -20.583204 -65.993805
v 50.783012 -20.583206 -71.206429
v 51.602131 -20.583206 -72.072098
v 54.118778 -20.583206 -72.279495
v 51.508774 -20.583204 -68.086143
v 38.709061 -20.559278 -67.009903
v 38.676617 -16.199387 -67.015259
v 40.999744 -16.199387 -69.853996
v 43.534084 -16.199387 -69.917763
v 43.818512 -20.559278 -69.947395
v 41.095535 -20.559278 -69.878998
v 51.395477 -20.596344 -80.919601
v 50.657925 -16.379288 -81.187126
v 55.623264 -20.599457 -83.669167
v 48.753544 -20.599455 -81.980164
v 48.254772 -20.599457 -82.218460
v 47.229893 -20.599455 -82.735435
v 45.161491 -20.582275 -67.693779
v 50.127605 -20.582275 -65.857513
v 49.317165 -20.582275 -68.929726
v 45.664093 -20.582275 -68.628845
v 46.069340 -15.802019 -67.687599
v 50.511303 -15.802019 -65.715637
v 49.816292 -15.802020 -68.349747
v 46.467495 -15.802018 -68.078659
v 43.999344 -20.583208 -81.847404
v 44.994781 -15.741088 -81.600166
v 39.357910 -15.741087 -82.773804
v 40.850533 -20.583206 -81.947762
v 45.293877 -20.583206 -77.612831
v 46.050674 -15.741087 -78.155266
v 40.490746 -15.741087 -79.706169
v 42.122990 -20.583206 -78.499146
vn -0.8138 0.0470 0.5793
vn 0.7470 -0.0009 0.6648
vn 0.7471 -0.0025 0.6648
vn -0.8724 0.0666 -0.4842
vn 0.6016 0.2626 0.7543
vn 0.8596 0.1375 -0.4921
vn 0.8625 0.1428 -0.4856
vn 0.8635 0.1358 -0.4857
vn -0.2381 -0.0675 0.9689
vn -0.2398 -0.0672 0.9685
vn 0.0300 0.1849 -0.9823
vn 0.0366 0.1881 -0.9815
vn 0.9277 0.2004 0.3149
vn 0.5659 0.0049 0.8245
vn 0.9124 0.1690 0.3728
vn -0.7874 0.0751 0.6118
vn -0.8133 0.1425 -0.5641
vn -0.8133 0.1437 -0.5638
vn 0.0149 0.1380 -0.9903
vn 0.8369 0.0291 -0.5466
vn -0.8831 -0.1071 0.4568
vn 0.9310 0.2019 -0.3040
vn 0.9348 0.2210 -0.2780
vn 0.2195 0.1168 -0.9686
vn 0.2206 0.1167 -0.9684
vn -0.0896 0.0051 -0.9960
vn -0.0879 0.0056 -0.9961
vn -0.0890 0.0052 -0.9960
vn -0.7913 -0.0000 0.6114
vn 0.7853 -0.0477 0.6173
vn 0.7863 -0.0470 0.6160
vn 0.7857 -0.0481 0.6167
vn 0.0228 0.9997 -0.0108
vn -0.8925 -0.0000 -0.4511
vn 0.6367 0.2271 0.7369
vn 0.9888 0.0182 -0.1479
vn 0.9894 0.0239 -0.1432
vn 0.9898 0.0266 -0.1401
vn -0.2985 -0.0029 0.9544
vn -0.2991 -0.0012 0.9542
vn -0.0129 0.2302 -0.9731
vn -0.0060 0.2277 -0.9737
vn 0.8225 0.1224 0.5555
vn -0.8033 0.1154 0.5843
vn -0.8165 0.1565 -0.5558
vn -0.8172 0.1570 -0.5546
vn 0.0306 0.1653 -0.9858
vn 0.7638 -0.0697 -0.6417
vn -0.5799 -0.0000 -0.8147
vn -0.0000 1.0000 -0.0000
vn 0.8524 -0.0173 -0.5227
vn 0.8545 -0.0167 -0.5192
vn 0.8517 -0.0138 -0.5238
vn 0.8327 -0.0955 0.5454
vn 0.8331 -0.0977 0.5444
vn 0.8330 -0.0957 0.5449
vn 0.8315 -0.0962 0.5471
vn -0.8531 -0.1737 -0.4921
vn -0.8534 -0.1749 -0.4911
vn -0.8532 -0.1738 -0.4919
vn -0.8522 -0.1745 -0.4933
vn -0.0000 -1.0000 -0.0000
vn -0.9095 0.0795 0.4080
vn -0.9094 0.0794 0.4082
vn -0.9094 0.0793 0.4083
vn -0.9096 0.0796 0.4078
vn -0.0032 1.0000 0.0001
vn -0.0040 1.0000 0.0001
vn 0.0002 1.0000 -0.0000
vn -0.6255 0.0002 -0.7802
vn -0.6256 0.0003 -0.7801
vn -0.6253 -0.0000 -0.7804
vn -0.6254 0.0002 -0.7803
vn 0.3551 0.1472 0.9232
vn 0.3552 0.1472 0.9231
vn 0.3549 0.1467 0.9233
vn -0.6284 -0.0073 0.7778
vn -0.6290 -0.0062 0.7773
vn -0.6277 -0.0069 0.7784
vn -0.6291 -0.0062 0.7773
vn 0.8568 -0.0336 -0.5145
vn 0.5044 -0.0000 -0.8635
vn 0.5214 -0.0264 -0.8529
vn -0.7850 -0.1519 -0.6006
vn -0.7850 -0.1520 -0.6006
vn -0.7850 -0.1520 -0.6005
vn 0.9879 -0.0000 0.1553
vn -0.1553 -0.0000 0.9879
vn -0.9810 -0.1458 0.1281
vn -0.9809 -0.1461 0.1287
vn -0.9809 -0.1460 0.1284
vn -0.0274 0.9992 0.0276
vn -0.6740 0.1504 0.7232
vn 0.7074 -0.0118 0.7067
vn 0.7076 -0.0140 0.7065
vn 0.7105 -0.0137 0.7035
vn 0.7073 -0.0138 0.7068
vn -0.7696 -0.1908 -0.6094
vn -0.7696 -0.1909 -0.6094
vn -0.7735 -0.1862 -0.6058
vn -0.7692 -0.1913 -0.6097
vn -0.1591 -0.0483 0.9861
vn -0.1604 -0.0497 0.9858
vn -0.1575 -0.0492 0.9863
vn -0.1597 -0.0489 0.9860
vn 0.9731 0.0783 -0.2168
vn 0.9729 0.0776 -0.2176
vn 0.9732 0.0790 -0.2159
vn -0.3883 -0.3237 -0.8628
vn -0.3895 -0.3238 -0.8622
vn -0.3885 -0.3239 -0.8627
vn -0.3874 -0.3243 -0.8630
vn 0.8660 0.1807 0.4663
vn 0.8656 0.1796 0.4675
vn 0.8657 0.1799 0.4672
vn 0.8627 0.1840 0.4710
vn -0.9866 0.1009 0.1280
vn -0.5684 -0.0874 0.8181
vn -0.5685 -0.0874 0.8181
vn -0.5684 -0.0873 0.8181
vn 0.5411 -0.0777 -0.8374
vn 0.9798 0.1770 0.0927
vn 0.9798 0.1770 0.0928
vn 0.9798 0.1771 0.0926
vn -0.7186 0.2064 -0.6641
vn -0.7115 0.2065 -0.6717
vn -0.7107 0.2063 -0.6725
vn -0.7156 0.2009 -0.6690
vn -0.0855 0.2331 -0.9687
vn -0.0793 0.2308 -0.9698
vn -0.0725 0.2275 -0.9711
vn -0.0799 0.2304 -0.9698
vn 0.8309 0.0862 -0.5497
vn 0.8313 0.0880 -0.5488
vn 0.8325 0.0874 -0.5471
vn 0.8310 0.0873 -0.5494
vn -0.9698 0.0938 0.2252
vn -0.9695 0.0954 0.2259
vn -0.9701 0.0946 0.2235
vn -0.9697 0.0940 0.2255
vn -0.3735 -0.0000 0.9276
vn -0.1475 0.0001 0.9891
vn -0.1627 0.0175 0.9865
vn 0.9442 0.0597 -0.3240
vn 0.9452 0.0641 -0.3201
vn 0.9454 0.0638 -0.3197
vn 0.9451 0.0643 -0.3204
vn -0.7690 -0.0129 -0.6391
vn -0.7736 -0.0069 -0.6336
vn -0.7739 -0.0065 -0.6333
vn -0.7687 -0.0132 -0.6394
vn -0.0251 0.0052 -0.9997
vn -0.0252 0.0052 -0.9997
vn 0.5104 0.0240 -0.8596
vn 0.5104 0.0214 -0.8597
vn 0.5097 0.0217 -0.8601
vn 0.5030 0.0332 -0.8636
vn 0.5676 0.1759 0.8043
vn 0.5674 0.1754 0.8045
vn 0.5675 0.1764 0.8043
vn 0.5672 0.1755 0.8046
vn -0.3596 -0.1209 -0.9252
vn -0.3572 -0.1209 -0.9262
vn -0.3610 -0.1222 -0.9245
vn -0.3588 -0.1215 -0.9255
vn 0.9646 -0.0718 0.2536
vn 0.9652 -0.0696 0.2520
vn 0.9651 -0.0698 0.2525
vn 0.9660 -0.0709 0.2484
vn 0.2303 0.2668 0.9358
vn 0.2327 0.2672 0.9351
vn 0.2291 0.2685 0.9357
vn 0.2297 0.2678 0.9357
vn -0.4233 0.1895 0.8860
vn -0.4233 0.1894 0.8860
vn -0.4427 0.1886 0.8766
vn -0.4425 0.1883 0.8768
vn -0.4419 0.1878 0.8772
vn -0.3749 0.0363 0.9263
vn -0.3750 0.0363 0.9263
vn 0.9646 -0.0698 -0.2545
vn 0.9646 -0.0699 -0.2545
vn 0.9645 -0.0698 -0.2545
vn 0.9646 -0.0699 -0.2544
vn -0.8140 0.1779 -0.5529
vn -0.0809 0.1278 -0.9885
vn -0.0806 0.1280 -0.9885
vn -0.0806 0.1279 -0.9885
vn -0.0807 0.1279 -0.9885
vn 0.1433 -0.0517 -0.9883
vn 0.1474 -0.0510 -0.9878
vn 0.1417 -0.0485 -0.9887
vn 0.9408 -0.1790 -0.2879
vn 0.9407 -0.1790 -0.2880
vn 0.9408 -0.1790 -0.2880
vn 0.9408 -0.1789 -0.2879
vn -0.9147 -0.2231 0.3371
vn -0.9135 -0.2252 0.3388
vn -0.9139 -0.2239 0.3387
vn -0.9145 -0.2255 0.3359
vn -0.2660 0.1481 0.9525
vn -0.2659 0.1480 0.9526
vn -0.2657 0.1479 0.9526
vn -0.2662 0.1483 0.9524
vn 1.0000 -0.0003 -0.0002
vn 1.0000 -0.0000 -0.0000
vn 1.0000 0.0001 -0.0019
vn 1.0000 -0.0026 -0.0021
vn 1.0000 -0.0016 -0.0042
vt 0.120572 0.970571
vt 0.194715 0.895095
vt 0.194904 0.971326
vt 0.796941 0.145962
vt 0.724288 0.192788
vt 0.722878 0.148724
vt 0.729909 0.609390
vt 0.655892 0.730988
vt 0.655892 0.606524
vt 0.911467 0.488478
vt 0.974521 0.563944
vt 0.906309 0.563944
vt 0.635835 0.141911
vt 0.603834 0.210880
vt 0.603834 0.134307
vt 0.257980 0.766394
vt 0.338686 0.840325
vt 0.230291 0.840325
vt 0.923399 0.471678
vt 0.848696 0.394489
vt 0.923297 0.398317
vt 0.923750 0.619661
vt 0.926594 0.710562
vt 0.904591 0.710921
vt 0.907628 0.620657
vt 0.787605 0.858150
vt 0.769029 0.945391
vt 0.764006 0.857353
vt 0.746540 0.535552
vt 0.833934 0.436704
vt 0.833934 0.547968
vt 0.792397 0.124855
vt 0.718840 0.019594
vt 0.792397 0.007386
vt 0.321707 0.327930
vt 0.396998 0.220390
vt 0.396147 0.336522
vt 0.322835 0.393301
vt 0.229252 0.349110
vt 0.189849 0.351511
vt 0.220243 0.276182
vt 0.722878 0.257792
vt 0.798788 0.212565
vt 0.797543 0.265198
vt 0.951308 0.668531
vt 0.961741 0.742873
vt 0.940479 0.668173
vt 0.940479 0.742420
vt 0.120572 0.893121
vt 0.280979 0.863351
vt 0.305137 0.931019
vt 0.297819 0.939845
vt 0.730092 0.731690
vt 0.971825 0.488698
vt 0.404128 0.977716
vt 0.404128 0.903341
vt 0.431345 0.904961
vt 0.333125 0.766176
vt 0.848696 0.490456
vt 0.785968 0.945765
vt 0.746335 0.432581
vt 0.718614 0.129404
vt 0.322516 0.209376
vt 0.396998 0.396998
vt 0.919065 0.835073
vt 0.987302 0.761329
vt 0.987302 0.835532
vt 0.918318 0.760864
vt 0.228433 0.942570
vt 0.228433 0.853481
vt 0.897016 0.840325
vt 0.841533 0.743224
vt 0.907423 0.743224
vt 0.857889 0.840133
vt 0.450188 0.838817
vt 0.355274 0.881658
vt 0.353708 0.838817
vt 0.452114 0.891447
vt 0.806270 0.013356
vt 0.847932 0.106372
vt 0.806270 0.111830
vt 0.853105 0.007221
vt 0.570803 0.977041
vt 0.607512 0.941917
vt 0.610274 0.990497
vt 0.570803 0.918427
vt 0.083281 0.405784
vt 0.032589 0.365616
vt 0.108635 0.370701
vt 0.006875 0.405784
vt 0.857332 0.506513
vt 0.894642 0.603884
vt 0.838858 0.603884
vt 0.889135 0.506511
vt 0.006346 0.095728
vt 0.085057 0.006516
vt 0.137391 0.067733
vt 0.040687 0.226708
vt 0.137391 0.233321
vt 0.097792 0.254813
vt 0.666551 0.934972
vt 0.623099 0.980911
vt 0.633491 0.922847
vt 0.678970 0.980911
vt 0.993692 0.333179
vt 0.938634 0.407382
vt 0.938289 0.333179
vt 0.992133 0.407380
vt 0.364904 0.899064
vt 0.385948 0.974521
vt 0.353170 0.973464
vt 0.391406 0.899741
vt 0.318647 0.900297
vt 0.320751 0.974521
vt 0.983180 0.579303
vt 0.939220 0.653408
vt 0.940193 0.579184
vt 0.990497 0.653408
vt 0.807676 0.280651
vt 0.881862 0.378614
vt 0.807631 0.378625
vt 0.881862 0.276688
vt 0.430525 0.007052
vt 0.555956 0.040651
vt 0.514688 0.052720
vt 0.555956 0.007052
vt 0.591103 0.089506
vt 0.500105 0.190008
vt 0.500953 0.094863
vt 0.589986 0.214874
vt 0.007223 0.421672
vt 0.161355 0.511224
vt 0.007087 0.511224
vt 0.132594 0.421672
vt 0.904228 0.857102
vt 0.871356 0.945765
vt 0.858688 0.857102
vt 0.903720 0.941517
vt 0.584243 0.061687
vt 0.500105 0.067933
vt 0.505303 0.492593
vt 0.548743 0.552761
vt 0.394402 0.552761
vt 0.548767 0.506338
vt 0.525602 0.335544
vt 0.510101 0.358656
vt 0.420543 0.309151
vt 0.525602 0.230270
vt 0.479749 0.197147
vt 0.409653 0.225097
vt 0.565093 0.605938
vt 0.640628 0.642225
vt 0.565665 0.632032
vt 0.639262 0.579912
vt 0.122337 0.815454
vt 0.083025 0.743501
vt 0.124611 0.741175
vt 0.077686 0.817959
vt 0.212478 0.881862
vt 0.137770 0.814907
vt 0.212478 0.780058
vt 0.137758 0.870537
vt 0.565774 0.503579
vt 0.639766 0.503579
vt 0.019474 0.743507
vt 0.006660 0.817959
vt 0.054121 0.524718
vt 0.148390 0.600688
vt 0.030644 0.599696
vt 0.148575 0.525516
vt 0.222717 0.567114
vt 0.258397 0.566976
vt 0.278131 0.621301
vt 0.167433 0.642225
vt 0.168188 0.567338
vt 0.285687 0.641738
vt 0.006636 0.527113
vt 0.010969 0.600688
vt 0.814398 0.124097
vt 0.888252 0.211658
vt 0.814398 0.225258
vt 0.888252 0.139194
vt 0.917351 0.962840
vt 0.940412 0.889717
vt 0.963338 0.964936
vt 0.917351 0.888666
vt 0.626930 0.430691
vt 0.626930 0.337337
vt 0.670188 0.350176
vt 0.712519 0.411534
vt 0.690082 0.456878
vt 0.673512 0.463297
vt 0.844474 0.861160
vt 0.801668 0.933974
vt 0.801668 0.859065
vt 0.846715 0.936179
vt 0.977716 0.231472
vt 0.959953 0.304690
vt 0.953090 0.230848
vt 0.977716 0.305137
vt 0.413364 0.566998
vt 0.441740 0.642225
vt 0.400920 0.641525
vt 0.455309 0.567725
vt 0.318501 0.567982
vt 0.333207 0.642225
vt 0.317114 0.473654
vt 0.291175 0.549566
vt 0.283890 0.475260
vt 0.329899 0.547696
vt 0.190558 0.473654
vt 0.175400 0.547573
vt 0.743842 0.730092
vt 0.833934 0.630615
vt 0.833859 0.729759
vt 0.743842 0.613317
vt 0.727280 0.337382
vt 0.792398 0.298543
vt 0.792398 0.400792
vt 0.718250 0.389000
vt 0.775857 0.418565
vt 0.848568 0.709926
vt 0.849349 0.619625
vt 0.941210 0.010539
vt 0.865630 0.100516
vt 0.865630 0.010432
vt 0.942570 0.100647
vt 0.939308 0.229273
vt 0.895503 0.318067
vt 0.895503 0.227925
vt 0.942570 0.319515
vt 0.238039 0.760514
vt 0.150847 0.665549
vt 0.238039 0.654667
vt 0.150824 0.776422
vt 0.715994 0.945765
vt 0.704646 0.857766
vt 0.960098 0.113774
vt 0.901521 0.201295
vt 0.911490 0.113777
vt 0.968131 0.201295
vt 0.947825 0.420718
vt 0.990497 0.474480
vt 0.943384 0.474480
vt 0.981478 0.428566
vt 0.030423 0.980010
vt 0.075086 0.906997
vt 0.075086 0.980911
vt 0.007128 0.905618
vt 0.009737 0.351548
vt 0.139923 0.277902
vt 0.127392 0.353064
vt 0.006723 0.276182
vt 0.138801 0.352790
vt 0.162459 0.352198
vt 0.585278 0.647807
vt 0.639030 0.719515
vt 0.585278 0.757251
vt 0.607009 0.650848
vt 0.477889 0.827544
vt 0.569977 0.728818
vt 0.578322 0.827544
vt 0.460626 0.728492
vt 0.007139 0.833746
vt 0.105440 0.894642
vt 0.007139 0.885988
vt 0.105440 0.833712
vt 0.562347 0.220497
vt 0.541233 0.319515
vt 0.541233 0.221421
vt 0.552758 0.319138
vt 0.355272 0.824349
vt 0.447823 0.768977
vt 0.455309 0.824349
vt 0.347117 0.764001
vt 0.259604 0.325829
vt 0.303539 0.260594
vt 0.303539 0.361052
vt 0.292812 0.264836
vt 0.749456 0.743442
vt 0.841922 0.843520
vt 0.730118 0.843520
vt 0.805863 0.743718
vt 0.691750 0.823893
vt 0.592792 0.907110
vt 0.592795 0.839164
vt 0.691750 0.907423
vt 0.312367 0.134901
vt 0.410316 0.124886
vt 0.412174 0.170941
vt 0.310276 0.083148
vt 0.424536 0.142531
vt 0.487261 0.063374
vt 0.479322 0.182124
vt 0.424536 0.023218
vt 0.412174 0.006493
vt 0.311335 0.015612
vt 0.681921 0.808373
vt 0.627074 0.751049
vt 0.702933 0.746736
vt 0.590392 0.808373
vt 0.479637 0.843027
vt 0.534038 0.861633
vt 0.466202 0.865979
vt 0.466202 0.936179
vt 0.555956 0.936179
vt 0.575513 0.303554
vt 0.603454 0.227367
vt 0.607485 0.323223
vt 0.709324 0.327503
vt 0.709323 0.198749
vt 0.135794 0.728494
vt 0.007873 0.728494
vt 0.020209 0.654048
vt 0.129848 0.630666
vt 0.106698 0.614426
vt 0.329093 0.465983
vt 0.424327 0.400102
vt 0.362507 0.492852
vt 0.467000 0.492852
vt 0.492053 0.447061
vt 0.486433 0.423076
vt 0.269946 0.356447
vt 0.307533 0.393236
vt 0.293791 0.459303
vt 0.192644 0.370020
vt 0.179923 0.459303
vt 0.144632 0.415972
vt 0.524510 0.582832
vt 0.550181 0.619443
vt 0.501434 0.583607
vt 0.554460 0.657468
vt 0.436156 0.692407
vt 0.457279 0.715714
vt 0.560749 0.715714
vt 0.308332 0.642225
vt 0.302729 0.567939
vt 0.539780 0.347125
vt 0.613469 0.339173
vt 0.613469 0.466218
vt 0.495133 0.408520
vt 0.556613 0.489657
vt 0.602530 0.486254
vt 0.731690 0.469524
vt 0.731690 0.589505
vt 0.665149 0.550482
vt 0.709528 0.465860
vt 0.654597 0.495177
vt 0.702933 0.011202
vt 0.702933 0.138989
vt 0.632570 0.117938
vt 0.615110 0.007183
vt 0.593920 0.019381
vt 0.274556 0.672253
vt 0.281030 0.654403
vt 0.382555 0.699068
vt 0.275724 0.750861
vt 0.396199 0.750861
vt 0.300893 0.225630
vt 0.289266 0.250519
vt 0.244292 0.275582
vt 0.150219 0.215908
vt 0.310917 0.204125
vt 0.315521 0.193667
vt 0.150219 0.078971
vt 0.276224 0.052818
vt 0.209382 0.037661
s 1
usemtl Default_Material.025
f 1/1/1 3/2/1 2/3/1
f 2/4/2 4/5/3 1/6/2
f 5/7/4 7/8/4 6/9/4
f 8/10/5 10/11/5 9/12/5
f 11/13/6 10/14/7 12/15/8
f 9/16/9 6/17/10 8/18/10
f 13/19/11 15/20/12 14/21/11
f 16/22/13 18/23/13 17/24/13
f 19/25/14 16/22/14 17/24/14
f 20/26/15 22/27/15 21/28/15
f 23/29/16 25/30/16 24/31/16
f 26/32/17 28/33/18 27/34/18
f 29/35/19 26/36/19 30/37/19
f 30/37/20 31/38/20 29/35/20
f 28/39/21 32/40/21 27/41/21
f 33/42/22 4/5/22 34/43/22
f 34/43/23 35/44/23 33/42/23
f 33/45/24 35/46/25 36/47/24
f 36/47/26 35/46/27 37/48/28
f 1/1/29 38/49/29 3/2/29
f 2/4/30 34/43/31 4/5/32
f 4/50/33 33/51/33 36/52/33
f 5/7/34 39/53/34 7/8/34
f 8/10/35 12/54/35 10/11/35
f 11/55/36 40/56/37 10/57/38
f 9/16/39 5/58/40 6/17/40
f 13/19/41 41/59/41 15/20/42
f 20/26/43 42/60/43 22/27/43
f 23/29/44 43/61/44 25/30/44
f 26/32/45 44/62/46 28/33/46
f 29/35/47 44/63/47 26/36/47
f 30/37/48 45/64/48 31/38/48
f 36/65/49 3/66/49 38/67/49
f 36/65/49 37/68/49 3/66/49
f 4/50/50 36/52/50 38/69/50
f 38/69/50 1/70/50 4/50/50
f 46/71/51 48/72/52 47/73/51
f 46/71/51 49/74/53 48/72/52
f 50/75/54 47/76/55 51/77/56
f 50/75/54 46/78/57 47/76/55
f 49/79/58 52/80/59 48/81/60
f 49/79/58 53/82/61 52/80/59
f 46/83/62 53/84/62 49/85/62
f 46/83/62 50/86/62 53/84/62
f 52/87/50 47/88/50 48/89/50
f 52/87/50 51/90/50 47/88/50
f 53/91/63 51/92/64 52/93/65
f 53/91/63 50/94/66 51/92/64
f 26/95/67 27/96/68 54/97/69
f 30/98/50 26/95/67 54/97/69
f 54/97/69 55/99/50 30/98/50
f 55/99/50 45/100/50 30/98/50
f 56/101/62 58/102/62 57/103/62
f 56/101/62 59/104/62 58/102/62
f 59/105/70 60/106/71 58/107/72
f 59/105/70 61/108/73 60/106/71
f 56/109/74 63/110/75 62/111/76
f 56/109/74 57/112/75 63/110/75
f 62/111/77 59/113/78 56/109/79
f 62/111/77 61/114/80 59/113/78
f 63/115/81 58/116/81 60/117/81
f 63/115/81 57/118/81 58/116/81
f 40/119/82 7/120/82 39/121/82
f 40/119/82 11/122/83 7/120/82
f 64/123/62 66/124/62 65/125/62
f 64/123/62 67/126/62 66/124/62
f 68/127/84 64/128/85 65/129/84
f 68/127/84 69/130/86 64/128/85
f 67/131/87 69/132/87 70/133/87
f 67/131/87 64/134/87 69/132/87
f 71/135/88 67/136/88 70/137/88
f 71/135/88 66/138/88 67/136/88
f 65/129/89 71/139/90 68/127/91
f 65/129/89 66/140/91 71/139/90
f 68/141/92 70/142/92 69/143/92
f 68/141/92 71/144/92 70/142/92
f 72/145/62 73/146/62 13/147/62
f 74/148/62 72/145/62 13/147/62
f 75/149/62 74/148/62 13/147/62
f 13/147/62 14/150/62 75/149/62
f 72/151/93 76/152/93 73/153/93
f 72/151/93 77/154/93 76/152/93
f 74/155/94 79/156/95 78/157/96
f 74/155/94 75/158/97 79/156/95
f 73/159/98 41/160/99 13/161/100
f 73/159/98 76/162/101 41/160/99
f 74/163/102 77/154/103 72/151/104
f 74/163/102 78/164/105 77/154/103
f 15/165/106 75/158/106 14/166/107
f 15/165/106 79/156/108 75/158/106
f 80/167/109 82/168/110 81/169/111
f 80/167/109 83/170/112 82/168/110
f 84/171/113 86/172/114 85/173/115
f 84/171/113 85/173/115 87/174/116
f 87/174/116 88/175/116 84/171/113
f 85/173/115 89/176/116 87/174/116
f 90/177/117 81/169/117 91/178/117
f 90/177/117 80/167/117 81/169/117
f 88/179/118 90/180/118 91/181/119
f 88/179/118 87/182/120 90/180/118
f 92/183/121 82/184/121 83/185/121
f 92/183/121 93/186/121 82/184/121
f 94/187/50 96/188/50 95/189/50
f 95/189/50 97/190/50 94/187/50
f 97/190/50 98/191/50 94/187/50
f 98/191/50 99/192/50 94/187/50
f 100/193/122 96/194/122 101/195/123
f 100/193/122 95/196/124 96/194/122
f 102/197/125 98/198/126 103/199/127
f 102/197/125 99/200/128 98/198/126
f 104/201/129 98/202/130 97/203/131
f 104/201/129 103/204/132 98/202/130
f 97/203/133 100/205/134 104/201/135
f 97/203/133 95/206/136 100/205/134
f 99/207/137 105/208/138 94/209/139
f 99/207/137 102/210/140 105/208/138
f 105/208/141 96/211/141 94/209/141
f 105/208/141 101/212/141 96/211/141
f 106/213/142 16/214/142 107/215/142
f 106/213/142 18/216/143 16/214/142
f 108/217/50 107/218/50 16/219/50
f 109/220/50 108/217/50 16/219/50
f 19/221/50 109/220/50 16/219/50
f 19/25/144 110/222/145 109/223/146
f 19/25/144 17/24/147 110/222/145
f 108/224/148 106/225/149 107/226/150
f 108/224/148 111/227/151 106/225/149
f 109/228/152 111/229/152 108/230/153
f 109/228/152 110/231/152 111/229/152
f 112/232/154 42/233/155 20/234/156
f 112/232/154 113/235/157 42/233/155
f 21/28/158 23/236/159 24/237/160
f 21/28/158 22/27/161 23/236/159
f 113/238/162 25/239/163 43/240/164
f 113/238/162 112/241/165 25/239/163
f 61/242/50 63/243/50 60/244/50
f 61/242/50 62/245/50 63/243/50
f 55/246/166 31/247/167 45/248/168
f 55/246/166 114/249/169 31/247/167
f 114/250/170 54/251/171 115/252/172
f 114/250/170 55/253/173 54/251/171
f 116/254/174 115/252/174 54/251/175
f 117/255/176 116/254/174 54/251/175
f 32/40/177 117/255/176 54/251/175
f 54/251/175 27/41/178 32/40/177
f 118/256/62 120/257/62 119/258/62
f 118/256/62 121/259/62 120/257/62
f 122/260/179 119/261/180 123/262/180
f 122/260/179 118/263/180 119/261/180
f 123/264/181 120/265/182 124/266/183
f 123/264/181 119/267/184 120/265/182
f 118/268/185 125/269/185 121/270/185
f 118/268/185 122/271/185 125/269/185
f 120/272/186 125/273/187 124/274/188
f 120/272/186 121/275/189 125/273/187
f 124/276/50 122/277/50 123/278/50
f 124/276/50 125/279/50 122/277/50
f 126/280/190 128/281/191 127/282/190
f 126/280/190 129/283/192 128/281/191
f 130/284/193 127/285/194 131/286/195
f 130/284/193 126/287/196 127/285/194
f 129/288/197 132/289/198 128/290/199
f 129/288/197 133/291/200 132/289/198
f 132/292/50 127/293/50 128/294/50
f 132/292/50 131/295/50 127/293/50
f 133/291/201 131/296/202 132/289/203
f 133/291/201 130/297/204 131/296/202
f 126/298/62 133/299/62 129/300/62
f 126/298/62 130/301/62 133/299/62
f 35/302/62 34/303/62 37/304/62
f 37/304/62 34/303/62 3/305/62
f 34/303/62 2/306/62 3/305/62
f 12/307/62 8/308/62 11/309/62
f 11/309/62 8/308/62 7/310/62
f 8/308/62 6/311/62 7/310/62
f 39/312/50 5/313/50 9/314/50
f 9/314/50 40/315/50 39/312/50
f 9/314/50 10/316/50 40/315/50
f 101/317/62 105/318/62 100/319/62
f 104/320/62 100/319/62 105/318/62
f 104/320/62 105/318/62 103/321/62
f 105/318/62 102/322/62 103/321/62
f 78/323/50 79/324/50 15/325/50
f 77/326/50 78/323/50 15/325/50
f 15/325/50 41/327/50 77/326/50
f 41/327/50 76/328/50 77/326/50
f 93/329/62 86/330/62 82/331/62
f 86/330/62 84/332/62 82/331/62
f 81/333/62 82/331/62 84/332/62
f 91/334/62 81/333/62 84/332/62
f 84/332/62 88/335/62 91/334/62
f 92/336/205 89/176/206 85/173/207
f 85/173/207 93/337/208 92/336/205
f 85/173/207 86/172/209 93/337/208
f 90/338/50 87/339/50 89/340/50
f 80/341/50 90/338/50 89/340/50
f 80/341/50 89/340/50 83/342/50
f 89/340/50 92/343/50 83/342/50
f 18/344/62 106/345/62 111/346/62
f 111/346/62 17/347/62 18/344/62
f 111/346/62 110/348/62 17/347/62
f 24/349/62 25/350/62 112/351/62
f 112/351/62 21/352/62 24/349/62
f 112/351/62 20/353/62 21/352/62
f 22/354/50 42/355/50 113/356/50
f 113/356/50 23/357/50 22/354/50
f 113/356/50 43/358/50 23/357/50
f 117/359/62 32/360/62 28/361/62
f 28/361/62 44/362/62 117/359/62
f 116/363/62 117/359/62 44/362/62
f 116/363/62 44/362/62 115/364/62
f 44/362/62 29/365/62 115/364/62
f 114/366/62 115/364/62 29/365/62
f 29/365/62 31/367/62 114/366/62
