# Blender 3.6.2
# www.blender.org
mtllib Little_rocks_1.mtl
o Stone_tiles_01
v 21.334011 -35.196987 -56.637203
v 20.465540 -31.604860 -58.128231
v 22.196877 -31.604860 -54.872795
v 23.033030 -31.604862 -57.155602
v 23.054731 -35.196991 -58.018566
v 22.896708 -31.604860 -56.082230
v 20.782204 -35.196987 -57.796455
v 22.012617 -35.196987 -56.210686
v 19.703110 -30.698431 -61.689503
v 18.806149 -36.044884 -62.399185
v 19.678719 -30.634880 -63.496803
v 23.135496 -30.634882 -61.373535
v 21.248043 -30.634880 -60.477299
v 34.857231 -35.193699 -55.997131
v 29.872988 -35.193699 -58.561844
v 29.872988 -30.765547 -58.561844
v 34.682701 -35.193699 -61.640846
v 36.821262 -35.193699 -59.380707
v 36.439819 -30.765547 -58.398537
v 37.819298 -35.214893 -69.195816
v 35.079674 -35.214893 -71.436096
v 35.462582 -31.874760 -71.788063
v 34.409161 -31.580944 -78.609940
v 34.139450 -35.173069 -78.512413
v 34.667336 -35.173069 -79.462265
v 35.480942 -31.580944 -79.090469
v 39.928131 -35.196991 -64.978188
v 40.912750 -31.604866 -62.722927
v 35.980312 -31.604866 -67.594887
v 30.528536 -30.604525 -74.208084
v 31.922325 -30.604523 -70.560593
v 30.014708 -35.193703 -73.261368
v 30.852365 -35.193703 -70.444771
v 30.383812 -31.581089 -65.480446
v 30.052433 -35.190277 -66.111633
v 30.549973 -35.190277 -65.873360
v 30.110146 -31.581089 -65.977974
v 25.626791 -33.403419 -68.577682
v 25.794691 -31.349579 -68.504051
v 25.530087 -31.349579 -68.340393
v 25.295576 -31.349579 -66.497551
v 27.495539 -31.349579 -64.765839
v 25.327749 -35.193699 -65.725876
v 26.879713 -35.193699 -64.300812
v 20.866631 -30.634882 -64.693306
v 35.160725 -30.765547 -56.190487
v 33.274406 -30.765549 -61.245171
v 39.271526 -31.874760 -68.942436
v 37.061935 -35.196991 -67.539070
v 32.468956 -35.193703 -76.383453
v 35.129189 -35.193703 -72.646362
v 35.129192 -30.604525 -72.646370
v 32.562145 -30.604525 -76.252556
v 22.192122 -35.196991 -59.942474
v 21.728737 -31.604862 -60.059155
v 20.676090 -36.044884 -60.481743
v 23.135496 -36.044884 -61.373535
v 21.165337 -36.044884 -64.775269
v 32.831440 -35.193699 -61.150997
v 32.880486 -30.765549 -61.138939
v 17.232479 -35.198956 -72.845787
v 20.707808 -35.198956 -75.908768
v 20.846464 -35.198956 -77.984238
v 19.281788 -35.198956 -78.570923
v 19.281788 -31.168135 -78.570923
v 16.751255 -31.168133 -71.532494
v 21.478550 -31.168135 -77.752640
v 21.330336 -31.168135 -75.568802
v 41.765957 -35.214893 -71.405212
v 41.957581 -35.214893 -70.259102
v 38.748924 -35.214893 -74.601982
v 36.407227 -35.214890 -74.293724
v 41.534920 -31.874760 -69.509918
v 41.077297 -31.874760 -72.246864
v 36.653961 -31.874760 -74.341454
v 38.830681 -31.874760 -74.632736
v 25.036541 -31.609062 -68.942596
v 25.470177 -35.201187 -70.317818
v 19.476852 -35.201187 -68.826027
v 20.257122 -31.609060 -67.754379
v 18.827911 -31.609060 -70.363777
v 18.631315 -31.609060 -69.277023
v 18.661566 -35.201187 -69.589577
v 19.111706 -35.201187 -71.735931
v 25.219881 -31.609062 -72.610596
v 22.686459 -31.609062 -75.148087
v 25.583183 -35.201191 -71.845688
v 22.046631 -35.201187 -75.388260
v 27.164089 -31.604864 -74.274330
v 27.129950 -31.604866 -77.581635
v 27.751537 -31.604866 -74.902000
v 24.723738 -31.604866 -74.086731
v 22.735023 -31.604866 -77.095131
v 22.940447 -31.604866 -79.268387
v 22.119879 -35.196991 -77.454926
v 22.315369 -35.196995 -79.520058
v 28.238060 -35.196995 -74.307396
v 27.418943 -35.196995 -73.441765
v 24.902290 -35.196991 -73.234337
v 27.512299 -35.196995 -77.427689
v 40.132915 -35.173069 -77.507767
v 40.163872 -31.580944 -77.496681
v 37.370029 -31.580944 -75.119751
v 34.865227 -31.580942 -75.510773
v 34.580086 -35.173069 -75.532539
v 37.271313 -35.173069 -75.112312
v 39.178886 -35.196991 -60.585674
v 36.031033 -35.196991 -62.422409
v 36.177929 -31.604866 -61.177750
v 40.247276 -31.604866 -58.815086
v 34.990433 -31.604866 -63.250084
v 35.931721 -35.196991 -62.595760
v 27.164587 -35.193230 -63.703423
v 26.936220 -31.608624 -63.521603
v 26.911898 -31.608624 -62.567474
v 27.122980 -35.193230 -62.929939
v 27.672066 -31.608624 -62.829433
v 27.977547 -35.193230 -63.224171
v 28.058908 -31.608624 -64.181389
v 28.154264 -35.193230 -63.983505
v 29.727657 -35.190277 -63.043777
v 29.654903 -31.581087 -63.049408
v 28.432661 -31.581087 -64.370331
v 28.551001 -31.581089 -65.682365
v 28.556044 -35.190277 -65.796738
v 28.423084 -35.190277 -64.450905
v 25.689180 -35.193699 -68.550339
v 27.679577 -31.349579 -64.898972
v 28.701479 -31.349579 -67.229469
v 28.701479 -35.193699 -67.229469
v 27.668385 -35.193699 -64.873428
v 27.014200 -35.193699 -64.396217
vn -0.8828 -0.0186 0.4695
vn 0.9917 -0.0243 0.1260
vn -0.9022 -0.0399 0.4295
vn -0.5113 -0.2768 0.8136
vn -0.9864 0.1630 0.0190
vn -0.0155 0.9993 -0.0326
vn -0.4575 -0.0000 0.8892
vn 0.7101 0.2102 -0.6719
vn 0.7088 0.2038 -0.6753
vn -0.6256 0.1523 0.7651
vn -0.6296 0.1545 0.7614
vn -0.8729 0.0524 -0.4851
vn -0.3991 0.1813 -0.8988
vn -0.4021 0.1839 -0.8969
vn -0.4007 0.1886 -0.8966
vn 0.6816 0.2461 -0.6891
vn 0.6811 0.2462 -0.6895
vn 0.6809 0.2469 -0.6896
vn -0.9196 0.1755 0.3514
vn -0.9340 0.2248 0.2778
vn 0.4289 0.1173 -0.8957
vn 0.8762 0.0038 -0.4820
vn -0.5246 0.0733 -0.8482
vn -0.6114 0.1508 0.7768
vn -0.6635 0.1937 0.7226
vn -0.0000 1.0000 -0.0000
vn -0.0218 0.9991 0.0354
vn -0.4083 0.0677 0.9104
vn 0.6441 0.2688 -0.7162
vn 0.6393 0.2666 -0.7213
vn -0.5869 0.1956 0.7856
vn -0.5915 0.1933 0.7828
vn 0.6548 0.1863 -0.7324
vn 0.6547 0.1857 -0.7327
vn 0.8147 -0.0000 -0.5799
vn -0.7549 -0.0084 -0.6557
vn -0.7557 -0.0096 -0.6549
vn -0.7549 -0.0084 -0.6558
vn -0.7561 -0.0077 -0.6544
vn 0.4966 -0.0469 0.8667
vn 0.4965 -0.0470 0.8668
vn 0.4965 -0.0470 0.8667
vn -0.8281 -0.1238 -0.5467
vn -0.8295 -0.1244 -0.5444
vn -0.8292 -0.1247 -0.5448
vn -0.8307 -0.1255 -0.5423
vn 0.8429 -0.2254 0.4886
vn 0.8436 -0.2251 0.4876
vn 0.8433 -0.2250 0.4880
vn 0.8441 -0.2252 0.4866
vn 0.9074 0.1036 -0.4072
vn 0.9074 0.1036 -0.4073
vn 0.9073 0.1034 -0.4076
vn 0.9075 0.1039 -0.4069
vn -0.0000 -1.0000 -0.0000
vn 0.8455 0.0274 -0.5332
vn -0.6755 0.0434 0.7361
vn -0.6754 0.0434 0.7361
vn -0.7094 -0.0285 -0.7043
vn -0.7093 -0.0285 -0.7043
vn 0.3803 -0.0205 0.9246
vn 0.3804 -0.0205 0.9246
vn -0.2590 0.0054 -0.9659
vn -0.2569 0.0051 -0.9664
vn -0.2558 0.0050 -0.9667
vn -0.2604 0.0055 -0.9655
vn 0.8662 -0.0327 0.4986
vn 0.8644 -0.0370 0.5014
vn 0.8651 -0.0301 0.5007
vn 0.8647 -0.0374 0.5009
vn -0.6509 0.0090 -0.7591
vn -0.6583 0.0003 -0.7528
vn -0.6507 0.0093 -0.7593
vn -0.6586 -0.0000 -0.7525
vn -0.9412 -0.0011 -0.3378
vn -0.9413 -0.0016 -0.3375
vn -0.9413 -0.0012 -0.3377
vn 0.3499 -0.0005 -0.9368
vn 0.3500 -0.0006 -0.9367
vn 0.3497 -0.0004 -0.9369
vn 0.9736 0.1597 -0.1628
vn -0.9056 0.0600 -0.4198
vn -0.9049 0.0602 -0.4213
vn -0.9045 0.0604 -0.4222
vn -0.9043 0.0579 -0.4229
vn 0.2396 -0.1831 0.9534
vn 0.2394 -0.1833 0.9535
vn 0.2448 -0.1787 0.9529
vn 0.2391 -0.1836 0.9535
vn 0.7274 -0.0236 -0.6858
vn 0.7283 -0.0250 -0.6848
vn 0.7263 -0.0243 -0.6869
vn 0.7278 -0.0241 -0.6853
vn -0.1320 -0.0055 -0.9912
vn -0.1327 -0.0072 -0.9911
vn -0.1326 -0.0059 -0.9911
vn -0.1326 -0.0035 -0.9912
vn 0.2284 -0.3238 0.9181
vn 0.2284 -0.3237 0.9182
vn 0.2285 -0.3239 0.9181
vn 0.2283 -0.3235 0.9183
vn -0.9840 0.0072 -0.1780
vn -0.9787 0.0011 -0.2053
vn 0.9906 0.1158 0.0733
vn 0.9937 0.1009 0.0497
vn -0.7670 0.1775 -0.6166
vn -0.7663 0.1756 -0.6180
vn -0.7671 0.1778 -0.6164
vn -0.7663 0.1755 -0.6180
vn 0.7055 -0.0786 -0.7043
vn 0.7055 -0.0786 -0.7044
vn -0.6819 -0.0691 0.7281
vn -0.9798 0.1770 -0.0927
vn -0.9798 0.1770 -0.0928
vn -0.9798 0.1771 -0.0926
vn 0.7187 0.2064 0.6640
vn 0.7115 0.2065 0.6717
vn 0.7107 0.2063 0.6725
vn 0.7156 0.2009 0.6690
vn 0.0856 0.2331 0.9687
vn 0.0794 0.2308 0.9698
vn 0.0725 0.2275 0.9711
vn 0.0799 0.2304 0.9698
vn -0.8335 0.0864 0.5457
vn -0.8313 0.0880 0.5488
vn -0.8320 0.0929 0.5469
vn -0.8310 0.0873 0.5494
vn 0.9698 0.0938 -0.2252
vn 0.9698 0.0938 -0.2253
vn 0.9699 0.0936 -0.2250
vn 0.9697 0.0940 -0.2255
vn 0.3735 -0.0000 -0.9276
vn 0.3222 0.0001 -0.9467
vn 0.3366 0.0212 -0.9414
vn -0.9861 0.0791 0.1459
vn -0.9863 0.0777 0.1455
vn -0.9864 0.0774 0.1452
vn -0.9862 0.0780 0.1458
vn 0.6448 -0.0121 0.7642
vn 0.6449 -0.0119 0.7641
vn 0.6480 -0.0079 0.7616
vn 0.6418 -0.0161 0.7667
vn -0.1543 0.0063 0.9880
vn -0.1542 0.0063 0.9880
vn -0.4846 -0.2633 0.8342
vn -0.4847 -0.2676 0.8327
vn -0.4855 -0.2684 0.8320
vn -0.4873 -0.2658 0.8318
vn 0.9231 -0.3508 0.1577
vn 0.9227 -0.3527 0.1556
vn 0.9231 -0.3515 0.1561
vn 0.9220 -0.3534 0.1583
vn -0.9351 -0.2825 -0.2140
vn -0.9333 -0.2880 -0.2143
vn -0.9353 -0.2837 -0.2116
vn -0.9337 -0.2841 -0.2180
vn -0.8596 -0.1355 0.4926
vn -0.8597 -0.1356 0.4925
vn -0.9976 -0.0583 -0.0381
vn 0.3246 -0.0762 0.9428
vn 0.3252 -0.0777 0.9424
vn 0.3249 -0.0762 0.9427
vn 0.3232 -0.0766 0.9432
vn 0.9651 0.0469 0.2576
vn -0.4062 -0.0188 -0.9136
vn -0.4064 -0.0204 -0.9135
vn -0.4079 -0.0202 -0.9128
vn -0.4064 -0.0204 -0.9134
vn 0.9579 0.0192 0.2863
vn 0.9600 0.0142 0.2796
vn 0.9577 0.0198 0.2871
vn 0.9602 0.0138 0.2790
vn -0.2058 0.0307 -0.9781
vn -0.1861 0.0393 -0.9817
vn -0.7337 -0.0136 0.6793
vn -0.7335 -0.0134 0.6796
vn -0.7339 -0.0137 0.6791
vn -0.7333 -0.0132 0.6798
vn -0.9953 0.0023 -0.0965
vn -0.9958 0.0040 -0.0917
vn -0.9959 0.0046 -0.0898
vn -0.9952 0.0017 -0.0983
vn 0.9852 -0.1581 0.0661
vn 0.9852 -0.1579 0.0666
vn 0.9852 -0.1580 0.0664
vn 0.6524 -0.1632 0.7401
vn 0.6523 -0.1632 0.7402
vn 0.6524 -0.1633 0.7401
vn -0.9950 -0.0361 -0.0931
vn -0.9914 -0.0340 -0.1264
vn -0.9916 -0.0332 -0.1251
vn 0.9158 -0.0000 0.4016
vn 0.5833 -0.0020 0.8122
vn 0.5814 0.0039 0.8136
vn 0.5857 0.0030 0.8105
vn 0.5875 0.0037 0.8092
vn 0.4016 -0.0000 -0.9158
vt 0.809460 0.862041
vt 0.847344 0.945240
vt 0.772554 0.945240
vt 0.705075 0.700849
vt 0.680222 0.700849
vt 0.724687 0.617548
vt 0.784085 0.862080
vt 0.828038 0.862312
vt 0.649058 0.155226
vt 0.648933 0.115919
vt 0.773326 0.150778
vt 0.831344 0.430601
vt 0.874758 0.444316
vt 0.882294 0.492168
vt 0.407248 0.717090
vt 0.304619 0.588063
vt 0.407248 0.587796
vt 0.699755 0.840727
vt 0.766990 0.735163
vt 0.766674 0.838802
vt 0.380305 0.487409
vt 0.458691 0.565528
vt 0.380997 0.568966
vt 0.251773 0.882787
vt 0.335026 0.862041
vt 0.335080 0.886893
vt 0.251664 0.863953
vt 0.367557 0.462621
vt 0.283384 0.569801
vt 0.283384 0.418699
vt 0.688698 0.006374
vt 0.776322 0.067815
vt 0.648933 0.067815
vt 0.794481 0.061103
vt 0.789070 0.006374
vt 0.896110 0.006374
vt 0.908961 0.007074
vt 0.992987 0.006374
vt 0.993149 0.019161
vt 0.909430 0.017652
vt 0.174369 0.903577
vt 0.180373 0.951184
vt 0.174740 0.951210
vt 0.096977 0.951580
vt 0.107560 0.862137
vt 0.161621 0.951580
vt 0.155733 0.862041
vt 0.789070 0.492168
vt 0.796432 0.453778
vt 0.304433 0.720815
vt 0.672763 0.737499
vt 0.457883 0.455536
vt 0.367351 0.547805
vt 0.182189 0.843769
vt 0.274418 0.735163
vt 0.274418 0.841458
vt 0.185420 0.737393
vt 0.652744 0.841574
vt 0.590285 0.735197
vt 0.650759 0.735163
vt 0.565463 0.841574
vt 0.543687 0.735988
vt 0.477696 0.841549
vt 0.477696 0.735163
vt 0.552716 0.842699
vt 0.789070 0.258557
vt 0.891605 0.174171
vt 0.891605 0.262862
vt 0.803098 0.193190
vt 0.992093 0.180033
vt 0.908858 0.123168
vt 0.992093 0.122195
vt 0.908858 0.175168
vt 0.677940 0.617285
vt 0.648933 0.700672
vt 0.762242 0.700308
vt 0.762576 0.617190
vt 0.809327 0.646802
vt 0.880208 0.571862
vt 0.869523 0.631566
vt 0.789070 0.571862
vt 0.648933 0.280034
vt 0.774543 0.357794
vt 0.649279 0.354514
vt 0.774543 0.277823
vt 0.651112 0.265076
vt 0.774108 0.189580
vt 0.774108 0.234948
vt 0.648933 0.204539
vt 0.775493 0.080562
vt 0.650024 0.080562
vt 0.648933 0.370542
vt 0.774331 0.399916
vt 0.648933 0.401966
vt 0.649073 0.167973
vt 0.531127 0.587796
vt 0.537712 0.717585
vt 0.451364 0.688400
vt 0.440423 0.587796
vt 0.419996 0.656981
vt 0.665492 0.839878
vt 0.665492 0.737316
vt 0.789071 0.137524
vt 0.891778 0.073850
vt 0.891778 0.161424
vt 0.789070 0.080391
vt 0.891737 0.275610
vt 0.789376 0.355326
vt 0.789070 0.275643
vt 0.892038 0.355174
vt 0.489971 0.302900
vt 0.630370 0.341638
vt 0.583984 0.354828
vt 0.630951 0.302900
vt 0.121822 0.123152
vt 0.295155 0.216735
vt 0.121749 0.216602
vt 0.262801 0.123261
vt 0.882432 0.559115
vt 0.789070 0.505219
vt 0.882432 0.504916
vt 0.789073 0.543861
vt 0.074615 0.356523
vt 0.006374 0.405952
vt 0.006374 0.232545
vt 0.060719 0.405331
vt 0.006374 0.441073
vt 0.021381 0.418699
vt 0.108075 0.466623
vt 0.006374 0.542983
vt 0.050762 0.575048
vt 0.118619 0.547991
vt 0.986095 0.684312
vt 0.908857 0.639994
vt 0.986095 0.659802
vt 0.908858 0.698523
vt 0.911665 0.436310
vt 0.986669 0.371324
vt 0.989180 0.436310
vt 0.908857 0.363626
vt 0.381798 0.420383
vt 0.458691 0.418699
vt 0.584484 0.211643
vt 0.512591 0.290153
vt 0.489971 0.213260
vt 0.583022 0.288944
vt 0.626052 0.290153
vt 0.630825 0.212939
vt 0.287166 0.844072
vt 0.369316 0.735163
vt 0.369314 0.832865
vt 0.287166 0.766141
vt 0.451960 0.089708
vt 0.470255 0.006458
vt 0.477224 0.089753
vt 0.419877 0.006374
vt 0.137440 0.241466
vt 0.220091 0.232546
vt 0.220091 0.375044
vt 0.087362 0.310328
vt 0.156320 0.401333
vt 0.207821 0.397518
vt 0.595570 0.945272
vt 0.678758 0.895753
vt 0.678720 0.930642
vt 0.595631 0.862041
vt 0.317450 0.089753
vt 0.317276 0.006407
vt 0.382063 0.735163
vt 0.464948 0.830261
vt 0.382063 0.843982
vt 0.464948 0.752311
vt 0.468984 0.863816
vt 0.443581 0.946081
vt 0.418173 0.862041
vt 0.469061 0.946971
vt 0.497171 0.173730
vt 0.489971 0.155145
vt 0.526542 0.102897
vt 0.548030 0.198895
vt 0.616849 0.151415
vt 0.631249 0.102897
vt 0.992225 0.107009
vt 0.909281 0.060388
vt 0.992628 0.060388
vt 0.908857 0.109448
vt 0.855098 0.742695
vt 0.862916 0.659810
vt 0.879405 0.743059
vt 0.845330 0.659549
vt 0.363580 0.395294
vt 0.332728 0.310795
vt 0.377799 0.311670
vt 0.317276 0.394385
vt 0.470988 0.394064
vt 0.454464 0.310795
vt 0.789598 0.742695
vt 0.789070 0.659549
vt 0.550460 0.717531
vt 0.633661 0.603225
vt 0.633661 0.707811
vt 0.550460 0.587796
vt 0.102378 0.721855
vt 0.185579 0.608160
vt 0.185579 0.722240
vt 0.102287 0.587796
vt 0.016502 0.631360
vt 0.089540 0.587796
vt 0.089540 0.702481
vt 0.006374 0.689256
vt 0.070987 0.722415
vt 0.335035 0.948543
vt 0.251727 0.946923
vt 0.582000 0.862661
vt 0.511974 0.945324
vt 0.511974 0.862041
vt 0.582823 0.945964
vt 0.351819 0.945483
vt 0.405426 0.863967
vt 0.405426 0.947275
vt 0.347828 0.862041
vt 0.360147 0.297672
vt 0.426231 0.215309
vt 0.444544 0.298048
vt 0.317276 0.214818
vt 0.592828 0.550502
vt 0.534654 0.466791
vt 0.626155 0.466791
vt 0.489971 0.550502
vt 0.765687 0.604328
vt 0.655777 0.521259
vt 0.758367 0.521158
vt 0.648933 0.604443
vt 0.475497 0.214818
vt 0.448665 0.298007
vt 0.993626 0.192781
vt 0.908857 0.213756
vt 0.910337 0.192781
vt 0.992417 0.209955
vt 0.908857 0.461958
vt 0.991921 0.449058
vt 0.991676 0.460530
vt 0.909133 0.449058
vt 0.941459 0.899987
vt 0.930724 0.879171
vt 0.952147 0.884714
vt 0.908857 0.899987
vt 0.991896 0.293046
vt 0.908857 0.314986
vt 0.908857 0.282389
vt 0.991908 0.311110
vt 0.991935 0.331601
vt 0.908857 0.350879
vt 0.908857 0.327734
vt 0.481808 0.862041
vt 0.499227 0.867133
vt 0.481808 0.948639
vt 0.759807 0.945686
vt 0.700991 0.862236
vt 0.759807 0.862041
vt 0.691506 0.945921
vt 0.955729 0.830485
vt 0.976925 0.866423
vt 0.918084 0.866423
vt 0.925804 0.824377
vt 0.908857 0.857033
vt 0.908857 0.047641
vt 0.992567 0.047641
vt 0.992475 0.268978
vt 0.908857 0.226503
vt 0.992474 0.228530
vt 0.908857 0.269641
vt 0.889660 0.862668
vt 0.860092 0.945737
vt 0.860092 0.862041
vt 0.890512 0.946381
vt 0.882782 0.370557
vt 0.789942 0.417854
vt 0.789070 0.368073
vt 0.883611 0.417854
vt 0.766857 0.508410
vt 0.680368 0.414714
vt 0.769858 0.414714
vt 0.648933 0.508411
vt 0.957201 0.753138
vt 0.908857 0.754987
vt 0.908857 0.736404
vt 0.924805 0.711271
vt 0.984324 0.712470
vt 0.174419 0.862078
vt 0.222445 0.951160
vt 0.238916 0.862041
vt 0.789193 0.774010
vt 0.878184 0.832338
vt 0.789070 0.832338
vt 0.878309 0.773371
vt 0.789240 0.769922
vt 0.878507 0.755806
vt 0.044688 0.834063
vt 0.111636 0.735163
vt 0.111636 0.846684
vt 0.006374 0.750344
vt 0.932704 0.929727
vt 0.917594 0.913903
vt 0.938515 0.912735
vt 0.908858 0.929727
vt 0.169442 0.763999
vt 0.163753 0.849294
vt 0.137463 0.830364
vt 0.124383 0.808959
vt 0.124383 0.735163
vt 0.271365 0.587796
vt 0.291686 0.684379
vt 0.284977 0.691047
vt 0.212204 0.587796
vt 0.198326 0.721432
vt 0.533039 0.012138
vt 0.636186 0.006374
vt 0.610940 0.087009
vt 0.607535 0.090150
vt 0.489971 0.090150
vt 0.353663 0.202071
vt 0.317276 0.166457
vt 0.330579 0.102501
vt 0.428496 0.188931
vt 0.440809 0.102500
vt 0.474973 0.144447
vt 0.230941 0.418699
vt 0.258784 0.461242
vt 0.205058 0.419570
vt 0.131366 0.542341
vt 0.154584 0.569221
vt 0.270637 0.569221
vt 0.304528 0.036510
vt 0.197711 0.110404
vt 0.267049 0.006374
vt 0.149848 0.006374
vt 0.121749 0.057734
vt 0.128052 0.084635
vt 0.494080 0.367575
vt 0.628654 0.367575
vt 0.584884 0.442208
vt 0.489971 0.392432
vt 0.522853 0.454044
vt 0.977173 0.811629
vt 0.908858 0.811629
vt 0.931744 0.773481
vt 0.979259 0.799011
vt 0.962567 0.767734
vt 0.908857 0.539548
vt 0.924666 0.493328
vt 0.912135 0.541515
vt 0.928358 0.550962
vt 0.988002 0.550962
vt 0.988002 0.474705
vt 0.084230 0.951079
vt 0.007985 0.951079
vt 0.006374 0.909612
vt 0.084161 0.862041
vt 0.010587 0.862041
vt 0.912952 0.627246
vt 0.908857 0.621308
vt 0.921035 0.579996
vt 0.986538 0.627246
vt 0.986537 0.568250
vt 0.983869 0.563709
vt 0.081674 0.219798
vt 0.006374 0.167107
vt 0.109002 0.114183
vt 0.094167 0.060833
vt 0.006374 0.006374
s 1
usemtl Default_Material.006
f 1/1/1 3/2/1 2/3/1
f 4/4/2 6/5/2 5/6/2
f 7/7/3 1/1/3 2/3/3
f 3/2/4 1/1/4 8/8/4
f 9/9/5 11/10/5 10/11/5
f 9/12/6 13/13/6 12/14/6
f 14/15/7 16/16/7 15/17/7
f 17/18/8 19/19/9 18/20/8
f 20/21/10 22/22/11 21/23/10
f 23/24/12 25/25/12 24/26/12
f 26/27/13 25/25/14 23/24/15
f 27/28/16 29/29/17 28/30/18
f 30/31/19 32/32/19 31/33/19
f 32/34/20 33/35/20 31/36/20
f 34/37/21 36/38/21 35/39/21
f 37/40/22 34/37/22 35/39/22
f 38/41/23 40/42/23 39/43/23
f 41/44/24 43/45/24 42/46/24
f 43/45/25 44/47/25 42/46/25
f 12/14/26 45/48/26 11/49/26
f 11/49/27 9/12/27 12/14/27
f 14/15/28 46/50/28 16/16/28
f 17/18/29 47/51/29 19/19/30
f 20/21/31 48/52/31 22/22/32
f 27/28/33 49/53/34 29/29/34
f 50/54/35 52/55/35 51/56/35
f 50/54/35 53/57/35 52/55/35
f 50/58/36 30/59/37 53/60/38
f 50/58/36 32/61/39 30/59/37
f 31/62/40 51/63/41 52/64/42
f 31/62/40 33/65/40 51/63/41
f 53/66/26 31/67/26 52/68/26
f 53/66/26 30/69/26 31/67/26
f 7/70/43 55/71/44 54/72/45
f 7/70/43 2/73/46 55/71/44
f 8/74/47 6/5/48 3/75/49
f 8/74/47 5/6/50 6/5/48
f 5/6/51 55/76/52 4/4/53
f 5/6/51 54/77/54 55/76/52
f 10/78/55 57/79/55 56/80/55
f 10/78/55 58/81/55 57/79/55
f 58/82/56 12/83/56 57/84/56
f 58/82/56 45/85/56 12/83/56
f 10/86/57 13/87/57 9/88/58
f 10/86/57 56/89/57 13/87/57
f 11/10/59 58/90/60 10/11/60
f 11/10/59 45/91/59 58/90/60
f 13/92/61 57/93/62 12/94/61
f 13/87/61 56/89/61 57/95/62
f 14/96/55 15/97/55 59/98/55
f 18/99/55 14/96/55 59/98/55
f 17/100/55 18/99/55 59/98/55
f 59/101/63 47/51/64 17/18/65
f 59/101/63 60/102/66 47/51/64
f 19/103/67 14/104/68 18/105/69
f 19/103/67 46/106/70 14/104/68
f 59/107/71 16/108/72 60/109/73
f 59/107/71 15/110/74 16/108/72
f 61/111/55 63/112/55 62/113/55
f 61/111/55 64/114/55 63/112/55
f 64/115/75 66/116/76 65/117/75
f 64/115/75 61/118/77 66/116/76
f 67/119/78 64/120/79 65/121/80
f 67/119/78 63/122/78 64/120/79
f 68/123/26 65/124/26 66/125/26
f 68/123/26 67/126/26 65/124/26
f 69/127/55 70/128/55 20/129/55
f 71/130/55 69/127/55 20/129/55
f 72/131/55 71/130/55 20/129/55
f 20/129/55 21/132/55 72/131/55
f 69/133/81 73/134/81 70/135/81
f 69/133/81 74/136/81 73/134/81
f 72/137/82 22/138/83 75/139/84
f 72/137/82 21/140/85 22/138/83
f 70/141/86 48/52/87 20/21/88
f 70/141/86 73/142/89 48/52/87
f 71/143/90 74/144/91 69/145/92
f 71/143/90 76/146/93 74/144/91
f 71/143/94 75/147/95 76/146/96
f 71/143/94 72/148/97 75/147/95
f 77/149/98 79/150/99 78/151/100
f 77/149/98 80/152/101 79/150/99
f 81/153/102 83/154/102 82/155/102
f 81/153/102 84/156/103 83/154/102
f 85/157/26 86/158/26 81/159/26
f 77/160/26 85/157/26 81/159/26
f 80/161/26 77/160/26 81/159/26
f 82/162/26 80/161/26 81/159/26
f 85/163/104 78/164/104 87/165/104
f 85/163/104 77/166/105 78/164/104
f 84/156/106 86/167/107 88/168/108
f 84/156/106 81/153/109 86/167/107
f 88/169/110 85/170/110 87/171/110
f 88/169/110 86/172/111 85/170/110
f 82/173/112 79/174/112 80/175/112
f 82/173/112 83/176/112 79/174/112
f 89/177/26 91/178/26 90/179/26
f 92/180/26 89/177/26 90/179/26
f 93/181/26 92/180/26 90/179/26
f 90/179/26 94/182/26 93/181/26
f 95/183/113 94/184/113 96/185/114
f 95/183/113 93/186/115 94/184/113
f 97/187/116 89/188/117 98/189/118
f 97/187/116 91/190/119 89/188/117
f 99/191/120 89/192/121 92/193/122
f 99/191/120 98/194/123 89/192/121
f 92/193/124 95/195/125 99/191/126
f 92/193/124 93/196/127 95/195/125
f 91/190/128 100/197/129 90/198/130
f 91/190/128 97/187/131 100/197/129
f 100/199/132 94/200/132 90/201/132
f 100/199/132 96/202/132 94/200/132
f 101/203/133 26/204/133 102/205/133
f 101/203/133 25/206/134 26/204/133
f 103/207/26 102/208/26 26/209/26
f 104/210/26 103/207/26 26/209/26
f 23/211/26 104/210/26 26/209/26
f 23/24/135 105/212/136 104/213/137
f 23/24/135 24/26/138 105/212/136
f 103/214/139 101/215/140 102/216/141
f 103/214/139 106/217/142 101/215/140
f 104/218/143 106/219/143 103/220/144
f 104/218/143 105/221/143 106/219/143
f 107/222/145 109/223/146 108/224/147
f 107/222/145 110/225/148 109/223/146
f 107/226/149 28/227/150 110/228/151
f 107/226/149 27/229/152 28/227/150
f 49/230/153 111/231/154 29/232/155
f 49/230/153 112/233/156 111/231/154
f 111/234/157 108/224/158 109/223/157
f 111/234/157 112/235/158 108/224/158
f 113/236/159 115/237/159 114/238/159
f 113/236/159 116/239/159 115/237/159
f 116/240/160 117/241/161 115/242/162
f 116/240/160 118/243/163 117/241/161
f 117/244/26 114/245/26 115/246/26
f 117/244/26 119/247/26 114/245/26
f 118/248/164 119/249/164 117/250/164
f 118/248/164 120/251/164 119/249/164
f 120/252/165 114/253/166 119/254/167
f 120/255/165 113/256/168 114/257/166
f 121/258/169 34/259/170 122/260/171
f 121/258/169 36/261/172 34/259/170
f 123/262/26 122/263/26 34/264/26
f 124/265/26 123/262/26 34/264/26
f 37/266/26 124/265/26 34/264/26
f 124/267/173 35/39/173 125/268/173
f 124/267/173 37/40/174 35/39/173
f 123/269/175 121/270/176 122/271/177
f 123/269/175 126/272/178 121/270/176
f 124/273/179 126/274/180 123/275/181
f 124/273/179 125/276/182 126/274/180
f 62/277/183 67/278/184 68/279/184
f 62/277/183 63/280/185 67/278/184
f 68/281/186 61/282/186 62/283/187
f 68/281/186 66/284/188 61/282/186
f 5/285/55 8/286/55 1/287/55
f 1/287/55 7/288/55 5/285/55
f 7/288/55 54/289/55 5/285/55
f 38/41/189 127/290/189 40/42/189
f 127/290/189 41/291/190 40/42/189
f 127/290/189 43/292/191 41/291/190
f 128/293/192 130/294/192 129/295/192
f 128/293/192 131/296/192 130/294/192
f 42/297/193 44/298/194 128/293/195
f 128/293/195 44/298/194 131/296/196
f 32/299/55 51/300/55 33/301/55
f 32/299/55 50/302/55 51/300/55
f 113/303/55 118/304/55 116/305/55
f 113/303/55 120/306/55 118/304/55
f 2/307/26 3/308/26 6/309/26
f 6/309/26 4/310/26 2/307/26
f 4/310/26 55/311/26 2/307/26
f 19/312/26 47/313/26 60/314/26
f 46/315/26 19/312/26 60/314/26
f 16/316/26 46/315/26 60/314/26
f 27/317/55 107/318/55 108/319/55
f 108/319/55 112/320/55 27/317/55
f 112/320/55 49/321/55 27/317/55
f 76/322/26 75/323/26 22/324/26
f 74/325/26 76/322/26 22/324/26
f 22/324/26 48/326/26 74/325/26
f 48/326/26 73/327/26 74/325/26
f 83/328/55 84/329/55 79/330/55
f 78/331/55 79/330/55 84/329/55
f 78/331/55 84/329/55 87/332/55
f 84/329/55 88/333/55 87/332/55
f 96/334/55 100/335/55 95/336/55
f 99/337/55 95/336/55 100/335/55
f 99/337/55 100/335/55 98/338/55
f 100/335/55 97/339/55 98/338/55
f 25/340/55 101/341/55 106/342/55
f 106/342/55 24/343/55 25/340/55
f 106/342/55 105/344/55 24/343/55
f 36/345/55 121/346/55 126/347/55
f 126/347/55 35/348/55 36/345/55
f 126/347/55 125/349/55 35/348/55
f 44/350/55 43/351/55 132/352/55
f 131/353/55 132/352/55 43/351/55
f 131/353/55 43/351/55 130/354/55
f 43/351/55 127/355/55 130/354/55
f 130/356/197 127/357/197 38/358/197
f 38/358/197 129/359/197 130/356/197
f 38/358/197 39/360/197 129/359/197
f 39/361/26 40/362/26 41/363/26
f 129/364/26 39/361/26 41/363/26
f 129/364/26 41/363/26 128/365/26
f 41/363/26 42/366/26 128/365/26
f 110/367/26 28/368/26 109/369/26
f 109/369/26 28/368/26 111/370/26
f 28/368/26 29/371/26 111/370/26
